<svg xmlns="http://www.w3.org/2000/svg" viewBox="0 0 92.15 74.31"><defs><style>.cls-1{fill:#383635;}</style></defs><g id="圖層_2" data-name="圖層 2"><g id="Layer_1" data-name="Layer 1"><path class="cls-1" d="M24.5,74.31a9.21,9.21,0,1,1,9.1-9.21A9.17,9.17,0,0,1,24.5,74.31Zm0-13a3.78,3.78,0,1,0,3.91,3.77A3.85,3.85,0,0,0,24.5,61.33Z"/><path class="cls-1" d="M48,74.31a9.21,9.21,0,1,1,9.1-9.21A9.17,9.17,0,0,1,48,74.31Zm0-13a3.78,3.78,0,1,0,3.91,3.77A3.85,3.85,0,0,0,48,61.33Z"/><path class="cls-1" d="M58.77,50.62H14.2a2.58,2.58,0,0,1-2.41-1.74L.17,17.33a2.86,2.86,0,0,1,.28-2.51,2.58,2.58,0,0,1,2.14-1.18h54a2.72,2.72,0,0,1,0,5.43H6.37L16,45.19H56.92L71.17,1.83A2.61,2.61,0,0,1,73.62,0H89.56a2.66,2.66,0,0,1,2.59,2.72,2.65,2.65,0,0,1-2.59,2.71H75.47L61.22,48.79A2.6,2.6,0,0,1,58.77,50.62Z"/></g></g></svg>