<svg xmlns="http://www.w3.org/2000/svg" viewBox="0 0 77.29 71.34"><defs><style>.cls-1{fill:#383635;}</style></defs><g id="圖層_2" data-name="圖層 2"><g id="Layer_1" data-name="Layer 1"><path class="cls-1" d="M38.64,40.28c-10.81,0-19.61-9-19.61-20.14S27.83,0,38.64,0,58.25,9,58.25,20.14,49.46,40.28,38.64,40.28Zm0-35.07A14.75,14.75,0,0,0,24.11,20.14,14.74,14.74,0,0,0,38.64,35.06,14.74,14.74,0,0,0,53.17,20.14,14.75,14.75,0,0,0,38.64,5.21Z"/><path class="cls-1" d="M74.75,71.34H2.54a2.5,2.5,0,0,1-1.9-.88,2.65,2.65,0,0,1-.62-2c2.1-17.89,10-27.05,24.09-28a2.48,2.48,0,0,1,1.67.51,20.87,20.87,0,0,0,25.71,0,2.47,2.47,0,0,1,1.68-.51c14.11.93,22,10.09,24.1,28a2.69,2.69,0,0,1-.62,2A2.53,2.53,0,0,1,74.75,71.34ZM5.47,66.13H71.82c-2.15-13-7.82-19.42-18.09-20.42a25.77,25.77,0,0,1-30.18,0C13.28,46.71,7.62,53.08,5.47,66.13Z"/></g></g></svg>